# xmcd CD database file
#
# Track frame offsets:
#	150
#	19850
#	35790
#	57877
#	73125
#	92255
#	111872
#	136207
#	153510
#	172362
#	196382
#
# Disc length: 2871 seconds
#
# Revision: 0
# Processed by: cddbd v1.4PL0 Copyright (c) Steve Scherf et al.
# Submitted via: CD2WAV32(EN) R3.19
#
DISCID=9b0b350b
DTITLE=22 - 1
DYEAR=1900
DGENRE=
TTITLE0=1
TTITLE1=2
TTITLE2=3
TTITLE3=4
TTITLE4=4
TTITLE5=5
TTITLE6=65
TTITLE7=7
TTITLE8=8
TTITLE9=9
TTITLE10=33
EXTD=
EXTT0=
EXTT1=
EXTT2=
EXTT3=
EXTT4=
EXTT5=
EXTT6=
EXTT7=
EXTT8=
EXTT9=
EXTT10=
PLAYORDER=
